<svg width="1334" height="302" viewBox="0 0 1334 302" fill="none" xmlns="http://www.w3.org/2000/svg"><circle cx="1030.36" cy="120.718" r="35.294" fill="#A2B3BF" stroke="#031634"/><path fill-rule="evenodd" clip-rule="evenodd" d="M1049.06 126.508h-2.38c-1.32 0-2.39.777-2.39 1.736v21.698h4.77v-23.434z" fill="#E1EAF1"/><path d="M1049.06 126.508h.5c0-.276-.22-.5-.5-.5v.5zm-4.77 23.434h-.5c0 .276.23.5.5.5v-.5zm4.77 0v.5c.28 0 .5-.224.5-.5h-.5zm-2.38-22.934h2.38v-1h-2.38v1zm-1.89 1.236c0-.28.16-.577.5-.823.33-.246.82-.413 1.39-.413v-1c-.76 0-1.46.222-1.98.605-.53.382-.91.953-.91 1.631h1zm0 21.698v-21.698h-1v21.698h1zm4.27-.5h-4.77v1h4.77v-1zm.5.5v-23.434h-1v23.434h1z" fill="#A2B3BF"/><mask id="path-4-inside-1" fill="#fff"><path fill-rule="evenodd" clip-rule="evenodd" d="M1042.32 149.544c-1.1 0-2 .896-2 2v5.944h12.71v-5.944c0-1.104-.89-2-2-2h-8.71z"/></mask><path fill-rule="evenodd" clip-rule="evenodd" d="M1042.32 149.544c-1.1 0-2 .896-2 2v5.944h12.71v-5.944c0-1.104-.89-2-2-2h-8.71z" fill="#A2B3BF"/><path d="M1040.32 157.488h-1v1h1v-1zm12.71 0v1h1v-1h-1zm-11.71-5.944c0-.552.45-1 1-1v-2c-1.65 0-3 1.344-3 3h2zm0 5.944v-5.944h-2v5.944h2zm-1 1h12.71v-2h-12.71v2zm11.71-6.944v5.944h2v-5.944h-2zm-1-1c.55 0 1 .448 1 1h2c0-1.656-1.34-3-3-3v2zm-8.71 0h8.71v-2h-8.71v2z" fill="#031634" mask="url(#path-4-inside-1)"/><path d="M183.993 260.432v13.856h995.317v-13.856" stroke="#0047FF" stroke-dasharray="4 6"/><circle cx="1003.8" cy="273.133" r="28.366" fill="#E1EAF1" stroke="#0047FF"/><path d="M1069.62 157.667v65.454c0 4.401-3.55 7.968-7.93 7.968H793.344v39.735m-15.855 0v-47.703c0-4.401 3.549-7.969 7.927-7.969h268.344v-57.485" stroke="#E1EAF1" stroke-linejoin="round"/><path fill="#fff" d="M1068.46 193.462h3.464v13.856h-3.464z"/><path stroke="#E1EAF1" d="M1074.24 192.962h299.05m-299.05 15.01h299.05"/><path fill="#E1EAF1" stroke="#031634" d="M1094.37 57.712h11.701v52.114h-11.701zm79.67 0h10.547v52.114h-10.547z"/><rect x="920.012" y="154.703" width="72.898" height="2.464" rx=".5" fill="#A2B3BF" stroke="#031634"/><path stroke="#031634" d="M920.667 157.167h314.783"/><path d="M784.417 270.824v-47.521h278.273v-54.089" stroke="#E1EAF1" stroke-width="2" stroke-linejoin="round" stroke-dasharray="6 6"/><path fill-rule="evenodd" clip-rule="evenodd" d="M481.468 139.064h-83.863v-3.335h85.445c.874 0 1.582.746 1.582 1.668v13.342h-3.164v-11.675zm-34.78-89.492a1.59 1.59 0 011.584-1.598h72.452c.875 0 1.585.716 1.585 1.598v10.784h-3.169V51.17h-69.284v26.76a1.59 1.59 0 01-1.584 1.598h-14.26v30.355c0 .882-.709 1.598-1.584 1.598H398.76v-3.196h32.084V77.93a1.59 1.59 0 011.584-1.597h14.26V49.572z" fill="#E1EAF1" stroke="#A2B3BF" stroke-linejoin="round"/><path stroke="#E1EAF1" stroke-width="2" stroke-linecap="round" d="M358.97 116.77h295.089M358.97 130.274h295.089m-289.528-14.681v16.27m7.943-16.27v16.27m7.944-16.27v16.27m7.943-16.27v16.27m7.944-16.27v16.27m7.944-16.27v16.27m7.943-16.27v16.27m7.943-16.27v16.27m7.944-16.27v16.27m7.944-16.27v16.27m7.943-16.27v16.27m7.944-16.27v16.27m7.943-16.27v16.27m7.944-16.27v16.27m7.943-16.27v16.27m7.944-16.27v16.27m7.943-16.27v16.27m7.944-16.27v16.27m7.944-16.27v16.27m7.943-16.27v16.27m7.944-16.27v16.27m7.943-16.27v16.27m7.944-16.27v16.27m7.943-16.27v16.27m7.944-16.27v16.27m7.944-16.27v16.27m7.944-16.27v16.27m7.943-16.27v16.27m7.944-16.27v16.27m7.943-16.27v16.27m7.943-16.27v16.27m7.944-16.27v16.27m7.944-16.27v16.27m7.943-16.27v16.27m7.943-16.27v16.27m7.944-16.27v16.27m7.944-16.27v16.27m-23.831-16.27v16.27"/><path fill-rule="evenodd" clip-rule="evenodd" d="M406.426 72.095h-67.917v4.766h65.534v73.478h-29.788a2.382 2.382 0 00-2.383 2.383v37.335H1v4.766h373.255a2.383 2.383 0 002.383-2.383v-37.335h29.788a2.383 2.383 0 002.383-2.383V74.478a2.383 2.383 0 00-2.383-2.383zm-49.25 56.399h23.036v21.845h4.766v-24.228a2.383 2.383 0 00-2.383-2.383h-25.419v4.766z" fill="#E1EAF1"/><path d="M338.509 72.095v-.5a.5.5 0 00-.5.5h.5zm0 4.766h-.5a.5.5 0 00.5.5v-.5zm65.534 0h.5a.5.5 0 00-.5-.5v.5zm0 73.478v.5a.5.5 0 00.5-.5h-.5zm-32.171 39.718v.5a.5.5 0 00.5-.5h-.5zM1 190.057v-.5a.5.5 0 00-.5.5H1zm0 4.766H.5a.5.5 0 00.5.5v-.5zm375.638-39.718v-.5a.5.5 0 00-.5.5h.5zm3.574-26.611h.5a.5.5 0 00-.5-.5v.5zm-23.036 0h-.5a.5.5 0 00.5.5v-.5zm23.036 21.845h-.5a.5.5 0 00.5.5v-.5zm4.766 0v.5a.5.5 0 00.5-.5h-.5zm-27.802-26.611v-.5a.5.5 0 00-.5.5h.5zm-18.667-51.133h67.917v-1h-67.917v1zm.5 4.266v-4.766h-1v4.766h1zm65.034-.5h-65.534v1h65.534v-1zm.5 73.978V76.861h-1v73.478h1zm-30.288.5h29.788v-1h-29.788v1zm-1.883 1.883c0-1.04.843-1.883 1.883-1.883v-1a2.883 2.883 0 00-2.883 2.883h1zm0 37.335v-37.335h-1v37.335h1zM1 190.557h370.872v-1H1v1zm.5 4.266v-4.766h-1v4.766h1zm372.755-.5H1v1h373.255v-1zm1.883-1.883c0 1.04-.843 1.883-1.883 1.883v1a2.883 2.883 0 002.883-2.883h-1zm0-37.335v37.335h1v-37.335h-1zm30.288-.5h-29.788v1h29.788v-1zm1.883-1.883c0 1.04-.843 1.883-1.883 1.883v1a2.883 2.883 0 002.883-2.883h-1zm0-78.244v78.244h1V74.478h-1zm-1.883-1.883c1.04 0 1.883.843 1.883 1.883h1a2.883 2.883 0 00-2.883-2.883v1zm-26.214 55.399h-23.036v1h23.036v-1zm.5 22.345v-21.845h-1v21.845h1zm4.266-.5h-4.766v1h4.766v-1zm-.5-23.728v24.228h1v-24.228h-1zm-1.883-1.883c1.04 0 1.883.843 1.883 1.883h1a2.883 2.883 0 00-2.883-2.883v1zm-25.419 0h25.419v-1h-25.419v1zm.5 4.266v-4.766h-1v4.766h1z" fill="#A2B3BF"/><path fill-rule="evenodd" clip-rule="evenodd" d="M583.965 87.585h52.825v16.284h-17.476c-.878 0-1.589.711-1.589 1.589v34.157h-134.68c-.878 0-1.589.711-1.589 1.589v9.532h3.177v-7.944h134.681c.877 0 1.588-.711 1.588-1.588v-34.158h40.115v-3.177h-21.05V85.996a1.59 1.59 0 00-1.589-1.589h-54.413v3.178z" fill="#E1EAF1"/><path d="M636.79 87.585h.5a.5.5 0 00-.5-.5v.5zm-52.825 0h-.5a.5.5 0 00.5.5v-.5zm52.825 16.284v.5a.5.5 0 00.5-.5h-.5zm-19.065 35.746v.5a.5.5 0 00.5-.5h-.5zm-136.269 11.121h-.5a.5.5 0 00.5.5v-.5zm3.177 0v.5a.5.5 0 00.5-.5h-.5zm0-7.944v-.5a.5.5 0 00-.5.5h.5zm136.269-35.746v-.5a.5.5 0 00-.5.5h.5zm40.115 0v.5c.277 0 .5-.223.5-.5h-.5zm0-3.177h.5a.5.5 0 00-.5-.5v.5zm-21.05 0h-.5a.5.5 0 00.5.5v-.5zm-56.002-19.462v-.5a.5.5 0 00-.5.5h.5zm52.825 2.678h-52.825v1h52.825v-1zm.5 16.784V87.585h-1v16.284h1zm-17.976.5h17.476v-1h-17.476v1zm-1.089 1.089c0-.602.487-1.089 1.089-1.089v-1a2.089 2.089 0 00-2.089 2.089h1zm0 34.157v-34.157h-1v34.157h1zm-135.18.5h134.68v-1h-134.68v1zm-1.089 1.089c0-.602.487-1.089 1.089-1.089v-1a2.089 2.089 0 00-2.089 2.089h1zm0 9.532v-9.532h-1v9.532h1zm2.677-.5h-3.177v1h3.177v-1zm-.5-7.444v7.944h1v-7.944h-1zm135.181-.5H484.633v1h134.681v-1zm1.088-1.088c0 .601-.487 1.088-1.088 1.088v1a2.088 2.088 0 002.088-2.088h-1zm0-34.158v34.158h1v-34.158h-1zm40.615-.5h-40.115v1h40.115v-1zm-.5-2.677v3.177h1v-3.177h-1zm-20.55.5h21.05v-1h-21.05v1zm-.5-18.373v17.873h1V85.996h-1zm-1.089-1.089c.602 0 1.089.488 1.089 1.089h1a2.089 2.089 0 00-2.089-2.089v1zm-54.413 0h54.413v-1h-54.413v1zm.5 2.678v-3.178h-1v3.178h1z" fill="#A2B3BF"/><path fill-rule="evenodd" clip-rule="evenodd" d="M395.557 59.253h-56.84v-3.196h58.442a1.6 1.6 0 011.601 1.598v93.084h-3.203V59.253z" fill="#E1EAF1" stroke="#A2B3BF" stroke-linejoin="round"/><path fill-rule="evenodd" clip-rule="evenodd" d="M200.688 1a2.383 2.383 0 00-2.383 2.383v29.788h4.766V5.766h76.655v19.86h-37.732a2.383 2.383 0 00-2.383 2.383v11.915h4.766v-9.532h35.349v9.134h4.766V3.383A2.383 2.383 0 00282.109 1h-81.421z" fill="#E1EAF1"/><path d="M198.305 33.171h-.5a.5.5 0 00.5.5v-.5zm4.766 0v.5a.5.5 0 00.5-.5h-.5zm0-27.405v-.5a.5.5 0 00-.5.5h.5zm76.655 0h.5a.5.5 0 00-.5-.5v.5zm0 19.86v.5a.5.5 0 00.5-.5h-.5zm-40.115 14.298h-.5a.5.5 0 00.5.5v-.5zm4.766 0v.5a.5.5 0 00.5-.5h-.5zm0-9.532v-.5a.5.5 0 00-.5.5h.5zm35.349 0h.5a.5.5 0 00-.5-.5v.5zm0 9.134h-.5a.5.5 0 00.5.5v-.5zm4.766 0v.5a.5.5 0 00.5-.5h-.5zM198.805 3.383c0-1.04.843-1.883 1.883-1.883v-1a2.883 2.883 0 00-2.883 2.883h1zm0 29.788V3.383h-1v29.788h1zm4.266-.5h-4.766v1h4.766v-1zm-.5-26.905v27.405h1V5.766h-1zm77.155-.5h-76.655v1h76.655v-1zm.5 20.36V5.765h-1v19.86h1zm-38.232.5h37.732v-1h-37.732v1zm-1.883 1.883c0-1.04.843-1.884 1.883-1.884v-1a2.883 2.883 0 00-2.883 2.884h1zm0 11.915V28.009h-1v11.915h1zm4.266-.5h-4.766v1h4.766v-1zm-.5-9.032v9.532h1v-9.532h-1zm35.849-.5h-35.349v1h35.349v-1zm.5 9.634v-9.134h-1v9.134h1zm4.266-.5h-4.766v1h4.766v-1zm-.5-35.643v36.143h1V3.383h-1zM282.109 1.5c1.04 0 1.883.843 1.883 1.883h1A2.883 2.883 0 00282.109.5v1zm-81.421 0h81.421v-1h-81.421v1z" fill="#A2B3BF"/><path fill-rule="evenodd" clip-rule="evenodd" d="M239.417 174.657v-19.299h3.221v17.815h89.394V156.1h3.221v18.557c0 .82-.721 1.485-1.61 1.485h-92.616c-.889 0-1.61-.665-1.61-1.485z" fill="#E1EAF1" stroke="#A2B3BF" stroke-linejoin="round"/><path fill-rule="evenodd" clip-rule="evenodd" d="M239.417 165.255v-21.444h3.221v19.794h89.394v-18.969h3.221v20.619c0 .911-.721 1.65-1.61 1.65h-92.616c-.889 0-1.61-.739-1.61-1.65zm-40.589-7.362v-10.618h4.794v13.068c0 1.353-1.073 2.45-2.397 2.45h-25.374l-16.877 17.25a2.372 2.372 0 01-1.694.718H1v-4.901h155.287l16.876-17.25a2.371 2.371 0 011.695-.717h23.97z" fill="#E1EAF1" stroke="#A2B3BF" stroke-linejoin="round"/><path fill-rule="evenodd" clip-rule="evenodd" d="M198.828 144.036v-10.617h4.794v13.068c0 1.353-1.073 2.45-2.397 2.45h-25.374l-16.877 17.25a2.37 2.37 0 01-1.694.717H1v-4.9h155.287l16.876-17.25a2.372 2.372 0 011.695-.718h23.97z" fill="#E1EAF1" stroke="#A2B3BF" stroke-linejoin="round"/><path fill-rule="evenodd" clip-rule="evenodd" d="M198.828 130.181v-10.618h4.794v13.068c0 1.353-1.073 2.45-2.397 2.45h-25.374l-16.877 17.25a2.367 2.367 0 01-1.694.718H1v-4.901h155.287l16.876-17.25a2.371 2.371 0 011.695-.717h23.97z" fill="#E1EAF1" stroke="#A2B3BF" stroke-linejoin="round"/><path fill="#E1EAF1" stroke="#A2B3BF" d="M215.668 78.496h10.547v7.083h-10.547z"/><rect x="194.885" y="33.464" width="11.701" height="12.856" rx="1.5" fill="#A2B3BF" stroke="#031634"/><rect x="459.302" y="66.949" width="124.858" height="38.258" rx="19.129" fill="#E1EAF1" stroke="#031634"/><path fill-rule="evenodd" clip-rule="evenodd" d="M810.46 109.325h-14.497v-4.772h16.913c1.334 0 2.416 1.068 2.416 2.386v23.863h25.368v-23.465c0-1.318 1.082-2.387 2.416-2.387h46.308c1.335 0 2.416 1.069 2.416 2.387v68.805h-4.832v-66.419h-41.475v23.465c0 1.318-1.082 2.387-2.417 2.387h-30.2c-1.335 0-2.416-1.069-2.416-2.387v-23.863z" fill="#E1EAF1" stroke="#A2B3BF" stroke-linejoin="round"/><rect x="185.647" y="41.546" width="30.176" height="78.672" rx="15.088" fill="#E1EAF1" stroke="#031634"/><rect x="226.061" y="39.237" width="31.331" height="105.229" rx="15.665" fill="#E1EAF1" stroke="#031634"/><rect x="223.751" y="20.762" width="37.104" height="12.856" rx="6.428" fill="#E1EAF1" stroke="#031634"/><path d="M267.628 54.325c0-8.333 6.756-15.088 15.088-15.088 8.333 0 15.088 6.755 15.088 15.088v100.533h-30.176V54.325z" fill="#E1EAF1" stroke="#031634"/><rect x="223.751" y="49.629" width="35.949" height="7.083" rx="1.5" fill="#F7F9FA" stroke="#031634"/><rect x="223.751" y="125.837" width="35.949" height="5.928" rx="1.5" fill="#F7F9FA" stroke="#031634"/><mask id="path-81-inside-2" fill="#fff"><path fill-rule="evenodd" clip-rule="evenodd" d="M333.345 20.065a5.56 5.56 0 00-5.56 5.56v51.501l-7.149 11.251v18.485h25.419V88.377l-7.149-11.251v-51.5a5.56 5.56 0 00-5.561-5.561z"/></mask><path fill-rule="evenodd" clip-rule="evenodd" d="M333.345 20.065a5.56 5.56 0 00-5.56 5.56v51.501l-7.149 11.251v18.485h25.419V88.377l-7.149-11.251v-51.5a5.56 5.56 0 00-5.561-5.561z" fill="#E1EAF1"/><path d="M327.785 77.126l.844.536.156-.245v-.29h-1zm-7.149 11.251l-.844-.536-.156.246v.29h1zm0 18.485h-1v1h1v-1zm25.419 0v1h1v-1h-1zm0-18.485h1v-.29l-.156-.246-.844.536zm-7.149-11.251l.844-.536-.295-.464h-.549v1zm0 0h-1v1h1v-1zm-10.121-51.5a4.56 4.56 0 014.56-4.561v-2a6.56 6.56 0 00-6.56 6.56h2zm0 51.5v-51.5h-2v51.5h2zm-7.305 11.788l7.149-11.252-1.688-1.072-7.149 11.251 1.688 1.073zm.156 17.948V88.377h-2v18.485h2zm24.419-1h-25.419v2h25.419v-2zm-1-17.485v18.485h2V88.377h-2zm-6.993-10.715l7.149 11.252 1.688-1.073-7.149-11.251-1.688 1.072zm.844.464v-2 2zm-1-52.5v51.5h2v-51.5h-2zm-4.561-4.561a4.56 4.56 0 014.561 4.56h2a6.561 6.561 0 00-6.561-6.56v2z" fill="#031634" mask="url(#path-81-inside-2)"/><rect x="661.368" y="68.103" width="126.013" height="83.29" rx=".5" fill="#A2B3BF" stroke="#031634"/><rect x=".5" y="-.5" width="142.178" height="5.928" rx=".5" transform="matrix(1 0 0 -1 652.785 156.667)" fill="#E1EAF1" stroke="#031634"/><path d="M508.969 67.104a7.582 7.582 0 017.566-7.083h8.083a7.582 7.582 0 017.566 7.083h-23.215z" fill="#A2B3BF" stroke="#031634"/><rect x="453.529" y="106.208" width="8.237" height="2.464" rx=".5" fill="#A2B3BF" stroke="#031634"/><rect x="584.006" y="106.208" width="7.083" height="2.464" rx=".5" fill="#A2B3BF" stroke="#031634"/><path stroke="#031634" d="M455.338 108.671h135.096"/><path d="M467.385 108.517h29.021v2.428a3.5 3.5 0 01-3.5 3.5h-22.021a3.5 3.5 0 01-3.5-3.5v-2.428zm80.826 0h30.176v2.428a3.5 3.5 0 01-3.5 3.5h-23.176a3.5 3.5 0 01-3.5-3.5v-2.428z" fill="#A2B3BF" stroke="#031634"/><path stroke="#031634" d="M476.622 66.449v38.104m91.218-38.104v38.104m-61.196-37.604h27.866v26.367a1.5 1.5 0 01-1.5 1.5h-24.866a1.5 1.5 0 01-1.5-1.5V66.948zm8.082-.5v38.104m12.701-38.104v38.104m-13.201-29.367h13.856m-13.856 8.083h13.856m-13.856 6.928h13.856m-13.856 8.082h13.856"/><rect x="421.198" y="155.858" width="126.013" height="38.258" rx="19.129" fill="#E1EAF1" stroke="#031634"/><path stroke="#E1EAF1" stroke-width="2" stroke-linecap="round" d="M290.656 204.944h295.089m-295.089 13.504h295.089m-289.529-14.682v16.271m7.944-16.271v16.271m7.944-16.271v16.271m7.943-16.271v16.271m7.944-16.271v16.271m7.943-16.271v16.271m7.943-16.271v16.271m7.944-16.271v16.271m7.944-16.271v16.271m7.943-16.271v16.271m7.944-16.271v16.271m7.943-16.271v16.271m7.944-16.271v16.271m7.943-16.271v16.271m7.944-16.271v16.271m7.944-16.271v16.271m7.943-16.271v16.271m7.943-16.271v16.271m7.944-16.271v16.271m7.944-16.271v16.271m7.943-16.271v16.271m7.944-16.271v16.271m7.944-16.271v16.271m7.943-16.271v16.271m7.944-16.271v16.271m7.943-16.271v16.271m7.944-16.271v16.271m7.943-16.271v16.271m7.944-16.271v16.271m7.944-16.271v16.271m7.943-16.271v16.271m7.943-16.271v16.271m7.944-16.271v16.271m7.944-16.271v16.271m7.943-16.271v16.271m7.944-16.271v16.271m7.943-16.271v16.271m-23.83-16.271v16.271m-212.093-15.093H641.35m-295.089 13.504H641.35m-289.529-14.682v16.271m7.944-16.271v16.271m7.943-16.271v16.271m7.944-16.271v16.271m7.944-16.271v16.271m7.943-16.271v16.271m7.943-16.271v16.271m7.944-16.271v16.271m7.944-16.271v16.271m7.943-16.271v16.271m7.943-16.271v16.271m7.944-16.271v16.271m7.944-16.271v16.271m7.943-16.271v16.271m7.943-16.271v16.271m7.944-16.271v16.271m7.943-16.271v16.271m7.944-16.271v16.271m7.944-16.271v16.271m7.944-16.271v16.271m7.943-16.271v16.271m7.944-16.271v16.271m7.944-16.271v16.271m7.943-16.271v16.271m7.944-16.271v16.271m7.943-16.271v16.271m7.944-16.271v16.271m7.943-16.271v16.271m7.944-16.271v16.271m7.944-16.271v16.271m7.943-16.271v16.271m7.944-16.271v16.271m7.943-16.271v16.271m7.943-16.271v16.271m7.944-16.271v16.271m7.944-16.271v16.271m7.944-16.271v16.271m-23.832-16.271v16.271"/><path d="M472.02 156.013a7.582 7.582 0 017.566-7.083h6.928a7.582 7.582 0 017.566 7.083h-22.06z" fill="#A2B3BF" stroke="#031634"/><rect x="415.425" y="195.117" width="7.083" height="2.464" rx=".5" fill="#A2B3BF" stroke="#031634"/><rect x="545.902" y="195.117" width="8.237" height="2.464" rx=".5" fill="#A2B3BF" stroke="#031634"/><path stroke="#031634" d="M416.08 197.58h136.25"/><path d="M428.126 197.426h31.331v2.428a3.5 3.5 0 01-3.5 3.5h-24.331a3.5 3.5 0 01-3.5-3.5v-2.428zm81.981 0h30.176v2.428a3.5 3.5 0 01-3.5 3.5h-23.176a3.5 3.5 0 01-3.5-3.5v-2.428z" fill="#A2B3BF" stroke="#031634"/><path stroke="#031634" d="M438.519 155.358v38.104m90.063-38.104v38.104m-58.888-37.604h26.712v25.212a1.5 1.5 0 01-1.5 1.5h-23.712a1.5 1.5 0 01-1.5-1.5v-25.212zm6.928-.5v38.104m13.856-38.104v38.104m-14.356-30.521h13.856m-13.856 8.082h13.856m-13.856 6.928h13.856m-13.856 8.083h13.856"/><path d="M787.226 98.125h5.892a3.5 3.5 0 013.5 3.5V112.1a3.5 3.5 0 01-3.5 3.5h-5.892V98.125z" fill="#828A8F" stroke="#031634"/><rect x="649.321" y="184.225" width="53.114" height="36.949" rx="4" fill="#DBE6EF"/><rect x="709.364" y="184.225" width="54.269" height="36.949" rx="4" fill="#DBE6EF"/><path stroke="#031634" d="M761.824 68.758v83.136m11.546-83.136v83.136m-12.046-69.78h12.701m-12.701-8.083h12.701m-12.701 23.094h12.701m-12.701-6.928h12.701m-12.701 23.093h12.701m-12.701-8.082h12.701m-12.701 23.093h12.701m-12.701-8.083h12.701m-12.701 24.248h12.701m-12.701-6.928h12.701"/><rect x="216.823" y="184.725" width="39.413" height="15.165" rx="7.583" fill="#E1EAF1" stroke="#031634"/><path stroke="#031634" d="M661.368 63.485h126.013v4.773H661.368zm15.01-.5v5.773m16.166-5.773v5.773m12.701-5.773v5.773m-21.938-5.773v5.773m6.927-5.773v5.773m20.785-5.773v5.773m12.701-5.773v5.773"/><path stroke="#000" d="M762.978 62.985v5.773m9.237-5.773v5.773"/><path stroke="#031634" d="M784.917 62.985v5.773m2.309-5.773v5.773m-36.949-5.773v5.773"/><path stroke="#000" d="M759.514 62.985v5.773"/><path stroke="#031634" d="M777.989 62.985v5.773m3.464-5.773v5.773m-50.805-5.773v5.773m17.32-5.773v5.773"/><path stroke="#000" d="M768.751 62.985v5.773"/><path stroke="#031634" d="M775.68 62.985v5.773m-57.734-5.773v5.773m9.238-5.773v5.773m30.021-5.773v5.773"/><path stroke="#000" d="M766.442 62.985v5.773"/><path stroke="#031634" d="M701.781 62.985v5.773m12.701-5.773v5.773m30.021-5.773v5.773m-4.618-5.773v5.773m-2.309-5.773v5.773m16.165-5.773v5.773m-66.97-5.773v5.773m9.237-5.773v5.773m24.248-5.773v5.773m13.856-5.773v5.773m-60.043-5.773v5.773m-3.464-5.773v5.773m-3.463-5.773v5.773m-2.31-5.773v5.773m15.011-5.773v5.773m19.629-5.773v5.773m9.237-5.773v5.773"/><path fill="#E1EAF1" d="M395.296 147.275h2.309v5.773h-2.309z"/><path d="M955.032 187.701a3.5 3.5 0 013.5-3.5h13.391c6.351 0 11.5 5.149 11.5 11.5v22.513a5.5 5.5 0 01-5.5 5.5h-19.391a3.5 3.5 0 01-3.5-3.5v-32.513z" fill="#E1EAF1" stroke="#031634"/><mask id="path-255-inside-3" fill="#fff"><path fill-rule="evenodd" clip-rule="evenodd" d="M932.579 182.113a4.768 4.768 0 00-4.495-3.177h-78.173a4.769 4.769 0 00-4.495 3.177h-3.598c-6.628 0-12 5.372-12 12v2.214c0 6.627 5.372 12 12 12h94.359c6.627 0 12-5.373 12-12v-2.214c0-6.628-5.373-12-12-12h-3.598z"/></mask><path fill-rule="evenodd" clip-rule="evenodd" d="M932.579 182.113a4.768 4.768 0 00-4.495-3.177h-78.173a4.769 4.769 0 00-4.495 3.177h-3.598c-6.628 0-12 5.372-12 12v2.214c0 6.627 5.372 12 12 12h94.359c6.627 0 12-5.373 12-12v-2.214c0-6.628-5.373-12-12-12h-3.598z" fill="#E1EAF1"/><path d="M932.579 182.113l-.943.333.236.667h.707v-1zm-87.163 0v1h.708l.235-.667-.943-.333zm88.106-.333a5.767 5.767 0 00-5.438-3.844v2a3.768 3.768 0 013.552 2.51l1.886-.666zm-5.438-3.844h-78.173v2h78.173v-2zm-78.173 0a5.766 5.766 0 00-5.437 3.844l1.885.666a3.768 3.768 0 013.552-2.51v-2zm-8.093 5.177h3.598v-2h-3.598v2zm-11 11c0-6.075 4.925-11 11-11v-2c-7.18 0-13 5.82-13 13h2zm0 2.214v-2.214h-2v2.214h2zm11 11c-6.075 0-11-4.925-11-11h-2c0 7.179 5.82 13 13 13v-2zm94.359 0h-94.359v2h94.359v-2zm11-11c0 6.075-4.925 11-11 11v2c7.18 0 13-5.821 13-13h-2zm0-2.214v2.214h2v-2.214h-2zm-11-11c6.075 0 11 4.925 11 11h2c0-7.18-5.82-13-13-13v2zm-3.598 0h3.598v-2h-3.598v2z" fill="#031634" mask="url(#path-255-inside-3)"/><path fill="#E1EAF1" stroke="#031634" d="M878.773 176.258h21.242v2.972h-21.242z"/><rect x="823.963" y="208.032" width="161.049" height="3.766" rx=".5" fill="#828A8F" stroke="#031634"/><circle cx="840.144" cy="220.242" r="5.855" fill="#828A8F" stroke="#031634"/><circle cx="840.144" cy="220.242" r="2.677" fill="#596064" stroke="#031634"/><circle cx="856.032" cy="220.242" r="5.855" fill="#828A8F" stroke="#031634"/><circle cx="856.031" cy="220.242" r="2.677" fill="#596064" stroke="#031634"/><circle cx="871.918" cy="220.242" r="5.855" fill="#828A8F" stroke="#031634"/><circle cx="871.919" cy="220.242" r="2.677" fill="#596064" stroke="#031634"/><circle cx="922.757" cy="220.242" r="5.855" fill="#828A8F" stroke="#031634"/><circle cx="922.758" cy="220.242" r="2.677" fill="#596064" stroke="#031634"/><circle cx="964.858" cy="220.242" r="5.855" fill="#828A8F" stroke="#031634"/><circle cx="964.858" cy="220.242" r="2.677" fill="#596064" stroke="#031634"/><path d="M968.536 189.674a1.5 1.5 0 011.5-1.5h1.709a8.5 8.5 0 018.5 8.5v11.153h-11.709v-18.153z" fill="#A2B3BF" stroke="#031634"/><path stroke="#031634" d="M975.185 214.181h8.737m-8.737 4.767h8.737m-24.624-30.186h4.766m-4.766 3.178h4.766m-4.766 3.177h4.766m-4.766 3.177h4.766m4.766 0h11.915"/><rect x="881.157" y="214.387" width="26.008" height="9.327" rx="1.5" fill="#E1EAF1" stroke="#031634"/><rect x="935.967" y="214.387" width="14.093" height="9.327" rx="1.5" fill="#E1EAF1" stroke="#031634"/><circle cx="886.217" cy="218.653" r="1.089" fill="#C4C4C4" stroke="#031634"/><circle cx="902.104" cy="218.653" r="1.089" fill="#C4C4C4" stroke="#031634"/><path stroke="#031634" d="M844.911 182.407h89.762"/><path d="M858.565 193.955c0 1.142-.29 2.041-.869 2.695-.576.654-1.379.981-2.407.981-1.052 0-1.864-.32-2.437-.962-.57-.644-.854-1.552-.854-2.724 0-1.162.286-2.062.859-2.7.573-.642 1.387-.962 2.441-.962 1.026 0 1.827.325 2.403.976.576.651.864 1.55.864 2.696zm-5.689 0c0 .966.206 1.7.616 2.202.413.498 1.012.747 1.797.747.791 0 1.388-.249 1.792-.747.403-.498.605-1.232.605-2.202 0-.961-.202-1.688-.605-2.183-.401-.498-.995-.747-1.783-.747-.791 0-1.393.251-1.806.752-.41.498-.616 1.224-.616 2.178zm11.265-3.56v.747h-3.149v6.392h-.83v-7.139h3.979zm6.646 7.139h-.83v-3.36h-3.76v3.36h-.83v-7.139h.83v3.037h3.76v-3.037h.83v7.139zm5.942 0h-3.979v-7.139h3.979v.737h-3.149v2.3h2.959v.733h-2.959v2.627h3.149v.742zm7.783-3.579c0 1.142-.29 2.041-.869 2.695-.576.654-1.379.981-2.407.981-1.052 0-1.864-.32-2.437-.962-.569-.644-.854-1.552-.854-2.724 0-1.162.286-2.062.859-2.7.573-.642 1.387-.962 2.442-.962 1.025 0 1.826.325 2.402.976.576.651.864 1.55.864 2.696zm-5.688 0c0 .966.205 1.7.615 2.202.413.498 1.012.747 1.797.747.791 0 1.388-.249 1.792-.747.403-.498.605-1.232.605-2.202 0-.961-.202-1.688-.605-2.183-.401-.498-.995-.747-1.782-.747-.791 0-1.394.251-1.807.752-.41.498-.615 1.224-.615 2.178zm12.612 3.579h-.83v-6.402h-3.667v6.402h-.83v-7.139h5.327v7.139zm6.455 0l-.889-2.271h-2.861l-.879 2.271h-.84l2.823-7.168h.698l2.807 7.168h-.859zm-1.147-3.018l-.83-2.212c-.108-.28-.219-.623-.332-1.03a9.45 9.45 0 01-.308 1.03l-.84 2.212h2.31zm6.045-3.481c-.785 0-1.405.262-1.861.786-.452.521-.678 1.235-.678 2.143 0 .935.218 1.657.654 2.168.439.508 1.064.762 1.875.762.498 0 1.066-.089 1.704-.269v.728c-.495.186-1.105.278-1.831.278-1.052 0-1.864-.319-2.437-.957-.569-.638-.854-1.544-.854-2.719 0-.736.137-1.381.41-1.934.277-.553.674-.98 1.191-1.279.521-.3 1.133-.45 1.836-.45.749 0 1.403.137 1.963.411l-.351.713a3.785 3.785 0 00-1.621-.381zm8.671 6.499h-.83v-3.36h-3.759v3.36h-.83v-7.139h.83v3.037h3.759v-3.037h.83v7.139zm8.16-3.579c0 1.142-.29 2.041-.87 2.695-.576.654-1.378.981-2.407.981-1.051 0-1.863-.32-2.436-.962-.57-.644-.855-1.552-.855-2.724 0-1.162.287-2.062.86-2.7.573-.642 1.386-.962 2.441-.962 1.025 0 1.826.325 2.402.976.577.651.865 1.55.865 2.696zm-5.689 0c0 .966.205 1.7.615 2.202.414.498 1.013.747 1.797.747.791 0 1.389-.249 1.792-.747.404-.498.606-1.232.606-2.202 0-.961-.202-1.688-.606-2.183-.4-.498-.994-.747-1.782-.747-.791 0-1.393.251-1.807.752-.41.498-.615 1.224-.615 2.178z" fill="#031634"/><path stroke="#031634" d="M939.642 26.036v128.167"/><path d="M905.656 29.5h33.485v17.32h-33.485l8.167-8.66-8.167-8.66z" fill="#97B4FF"/><path stroke="#031634" d="M983.519 26.036v128.167"/><path d="M950.688 29.5h32.331v17.32h-32.331l7.885-8.66-7.885-8.66z" fill="#97B4FF"/><path d="M998.529 11.87a1.5 1.5 0 011.501-1.5h36.41c.83 0 1.5.672 1.5 1.5v145.297h-39.411V11.871z" fill="#E1EAF1" stroke="#031634"/><path fill="#E1EAF1" stroke="#A2B3BF" d="M1003.15 58.867h30.176v7.083h-30.176zm0 13.855h30.176v5.928h-30.176zm0 11.547h30.176v7.083h-30.176zm0 12.701h30.176v7.083h-30.176zm0 12.701h30.176v5.928h-30.176z"/><path d="M1087.44 115.171c0-3.037 2.46-5.5 5.5-5.5h15.71c3.04 0 5.5 2.463 5.5 5.5v41.996h-26.71v-41.996z" fill="#A2B3BF" stroke="#031634"/><rect x="1092.06" y="113.135" width="16.32" height="18.629" rx="2.5" fill="#828A8F" stroke="#000"/><mask id="path-295-inside-4" fill="#fff"><path fill-rule="evenodd" clip-rule="evenodd" d="M1121.12 111.313a2.36 2.36 0 00-3.34 0 2.35 2.35 0 000 3.342l6.79 6.788-3.55 4.105c-.34.396-.32.989.05 1.36l4.93 4.924c.05.047.1.088.15.123v20.807h-46.9v4.726h49.26c1.31 0 2.37-1.058 2.37-2.363v-33.083c0-.626-.25-1.227-.69-1.67l-9.07-9.059z"/></mask><path fill-rule="evenodd" clip-rule="evenodd" d="M1121.12 111.313a2.36 2.36 0 00-3.34 0 2.35 2.35 0 000 3.342l6.79 6.788-3.55 4.105c-.34.396-.32.989.05 1.36l4.93 4.924c.05.047.1.088.15.123v20.807h-46.9v4.726h49.26c1.31 0 2.37-1.058 2.37-2.363v-33.083c0-.626-.25-1.227-.69-1.67l-9.07-9.059z" fill="#E1EAF1"/><path d="M1117.78 111.313l.7.708-.7-.708zm3.34 0l-.71.708.71-.708zm-3.34 3.342l.7-.707-.7.707zm6.79 6.788l.76.654.6-.704-.65-.657-.71.707zm-3.55 4.105l.76.653-.76-.653zm.05 1.36l-.7.707.7-.707zm4.93 4.924l-.7.707.7-.707zm.15.123h1v-.525l-.43-.298-.57.823zm0 20.807v1h1v-1h-1zm-46.9 0v-1h-1v1h1zm0 4.726h-1v1h1v-1zm50.94-37.116l.7-.708-.7.708zm-11.71-8.351c.54-.533 1.4-.533 1.93 0l1.42-1.415a3.368 3.368 0 00-4.76 0l1.41 1.415zm0 1.927a1.366 1.366 0 010-1.927l-1.41-1.415a3.37 3.37 0 000 4.756l1.41-1.414zm6.8 6.788l-6.8-6.788-1.41 1.414 6.79 6.788 1.42-1.414zm-3.5 5.465l3.55-4.104-1.52-1.308-3.54 4.105 1.51 1.307zm0-.001v.001c0-.001 0-.001 0 0s0 .001 0 0l-1.51-1.307c-.69.793-.64 1.98.1 2.721l1.41-1.415zm4.93 4.925l-4.93-4.925-1.41 1.415 4.93 4.924 1.41-1.414zm.01.007s-.01-.002-.01-.007l-1.41 1.414c.08.089.18.169.28.238l1.14-1.645zm.43 21.63v-20.807h-2v20.807h2zm-47.9 1h46.9v-2h-46.9v2zm1 3.726v-4.726h-2v4.726h2zm48.26-1h-49.26v2h49.26v-2zm1.37-1.363c0 .752-.61 1.363-1.37 1.363v2c1.86 0 3.37-1.505 3.37-3.363h-2zm0-33.083v33.083h2v-33.083h-2zm-.4-.963c.26.256.4.602.4.963h2c0-.892-.36-1.747-.99-2.378l-1.41 1.415zm-9.07-9.058l9.07 9.058 1.41-1.415-9.06-9.058-1.42 1.415z" fill="#031634" mask="url(#path-295-inside-4)"/><path d="M1167.11 115.171c0-3.037 2.46-5.5 5.5-5.5h13.4c3.04 0 5.5 2.463 5.5 5.5v41.996h-24.4v-41.996z" fill="#A2B3BF" stroke="#031634"/><rect x="1171.73" y="113.135" width="15.165" height="18.629" rx="2.5" fill="#828A8F" stroke="#000"/><mask id="path-299-inside-5" fill="#fff"><path fill-rule="evenodd" clip-rule="evenodd" d="M1199.76 111.313a2.36 2.36 0 00-3.34 0 2.35 2.35 0 000 3.342l6.79 6.788-3.54 4.105a.982.982 0 00.05 1.36l4.92 4.924c.05.047.1.088.15.123v20.807h-46.9v4.726h49.26c1.31 0 2.37-1.058 2.37-2.363v-33.083c0-.626-.25-1.227-.69-1.67l-9.07-9.059z"/></mask><path fill-rule="evenodd" clip-rule="evenodd" d="M1199.76 111.313a2.36 2.36 0 00-3.34 0 2.35 2.35 0 000 3.342l6.79 6.788-3.54 4.105a.982.982 0 00.05 1.36l4.92 4.924c.05.047.1.088.15.123v20.807h-46.9v4.726h49.26c1.31 0 2.37-1.058 2.37-2.363v-33.083c0-.626-.25-1.227-.69-1.67l-9.07-9.059z" fill="#E1EAF1"/><path d="M1196.42 111.313l.7.708-.7-.708zm3.34 0l-.7.708.7-.708zm-3.34 3.342l.7-.707-.7.707zm6.79 6.788l.76.654.61-.704-.66-.657-.71.707zm-3.54 4.105l-.76-.654.76.654zm.05 1.36l.7-.708-.7.708zm4.92 4.924l-.7.708.7-.708zm.15.123h1v-.524l-.43-.299-.57.823zm0 20.807v1h1v-1h-1zm-46.9 0v-1h-1v1h1zm0 4.726h-1v1h1v-1zm50.94-37.116l.7-.708-.7.708zm-11.71-8.351c.54-.533 1.4-.533 1.94 0l1.41-1.415a3.368 3.368 0 00-4.76 0l1.41 1.415zm0 1.927a1.366 1.366 0 010-1.927l-1.41-1.415a3.37 3.37 0 000 4.756l1.41-1.414zm6.8 6.788l-6.8-6.788-1.41 1.414 6.79 6.789 1.42-1.415zm-3.5 5.465l3.55-4.104-1.52-1.308-3.54 4.105 1.51 1.307zm0-.001v.001c0 .001 0 .001 0 0s0-.001 0 0 0 .002 0 0l-1.51-1.307c-.69.793-.64 1.98.1 2.721l1.41-1.415zm4.93 4.925l-4.93-4.925-1.41 1.415 4.93 4.925 1.41-1.415zm.01.007s0-.002-.01-.007l-1.41 1.415c.09.088.18.168.28.238l1.14-1.646zm.43 21.63v-20.807h-2v20.807h2zm-47.9 1h46.9v-2h-46.9v2zm1 3.726v-4.726h-2v4.726h2zm48.26-1h-49.26v2h49.26v-2zm1.37-1.363c0 .752-.61 1.363-1.37 1.363v2c1.86 0 3.37-1.505 3.37-3.363h-2zm0-33.083v33.083h2v-33.083h-2zm-.4-.963c.26.256.4.602.4.963h2a3.33 3.33 0 00-.99-2.378l-1.41 1.415zm-9.06-9.058l9.06 9.058 1.41-1.415-9.06-9.058-1.41 1.415z" fill="#031634" mask="url(#path-299-inside-5)"/><path fill="#97B4FF" stroke="#031634" d="M1063.05 50.771h171.896v7.063H1063.05z"/><path d="M1066.15 200.39h307.14" stroke="#E1EAF1" stroke-width="2" stroke-linejoin="round" stroke-dasharray="6 6"/><path d="M1125.54 176.678c0-1.933 1.57-3.5 3.5-3.5h47.35c5.8 0 10.5 4.701 10.5 10.5v11.866c0 3.038-2.46 5.5-5.5 5.5h-52.35c-1.93 0-3.5-1.567-3.5-3.5v-20.866z" fill="#E1EAF1" stroke="#031634"/><circle cx="1172.96" cy="199.813" r="4.696" fill="#828A8F" stroke="#031634"/><circle cx="1138.32" cy="199.813" r="4.696" fill="#828A8F" stroke="#031634"/><path d="M1174.04 177.874c0-.681.55-1.232 1.23-1.232 4.51 0 8.16 3.653 8.16 8.16v4.696h-9.39v-11.624z" fill="#A2B3BF" stroke="#031634"/><path stroke="#031634" d="M1180.47 192.962h6.92m-6.92 4.618h5.77m-61.2-8.082h27.71"/><path d="M1170.73 178.142c0-.829-.67-1.5-1.5-1.5h-5.17c-4.69 0-8.5 3.805-8.5 8.5v4.356h15.17v-11.356z" fill="#A2B3BF" stroke="#031634"/><mask id="path-311-inside-6" fill="#fff"><path fill-rule="evenodd" clip-rule="evenodd" d="M1012.29 263.775l-6.62-3.825-5.14 8.909-12.813 6.041c-1.46.688-1.545 2.734-.147 3.541l17.76 10.253c1.4.807 3.13-.289 2.99-1.898l-1.17-14.113 5.14-8.908z"/></mask><path fill-rule="evenodd" clip-rule="evenodd" d="M1012.29 263.775l-6.62-3.825-5.14 8.909-12.813 6.041c-1.46.688-1.545 2.734-.147 3.541l17.76 10.253c1.4.807 3.13-.289 2.99-1.898l-1.17-14.113 5.14-8.908z" fill="#fff"/><path d="M1005.67 259.95l.5-.866-.87-.5-.5.866.87.5zm6.62 3.825l.87.5.5-.867-.87-.5-.5.867zm-11.76 5.084l.42.904.29-.133.15-.271-.86-.5zm-12.813 6.041l.427.904-.427-.904zm-.147 3.541l-.5.866.5-.866zm17.76 10.253l.5-.866-.5.866zm2.99-1.898l-.99.083.99-.083zm-1.17-14.113l-.87-.5-.15.271.02.311 1-.082zm-1.98-11.867l6.62 3.825 1-1.733-6.62-3.824-1 1.732zm-3.78 8.543l5.15-8.909-1.74-1-5.14 8.909 1.73 1zm-13.246 6.445l12.806-6.041-.85-1.809-12.809 6.041.853 1.809zm-.074 1.771a1 1 0 01.074-1.771l-.853-1.809c-2.19 1.033-2.318 4.101-.221 5.312l1-1.732zm17.76 10.253l-17.76-10.253-1 1.732 17.76 10.253 1-1.732zm1.5-.949c.06.805-.8 1.353-1.5.949l-1 1.732c2.1 1.211 4.69-.433 4.49-2.846l-1.99.165zm-1.18-14.114l1.18 14.114 1.99-.165-1.17-14.114-2 .165zm5.28-9.49l-5.15 8.908 1.74 1 5.14-8.908-1.73-1z" fill="#031634" mask="url(#path-311-inside-6)"/><circle cx="1011.7" cy="258.715" r="1.496" transform="rotate(30 1011.7 258.715)" stroke="#000"/><circle cx="1007.43" cy="250.467" r=".692" transform="rotate(30 1007.43 250.467)" stroke="#000"/><mask id="path-315-inside-7" fill="#fff"><path fill-rule="evenodd" clip-rule="evenodd" d="M987.446 275.053c-1.193.799-1.181 2.634.124 3.388l17.76 10.253c1.4.807 3.13-.289 2.99-1.898l-.97-11.743h-19.904z"/></mask><path fill-rule="evenodd" clip-rule="evenodd" d="M987.446 275.053c-1.193.799-1.181 2.634.124 3.388l17.76 10.253c1.4.807 3.13-.289 2.99-1.898l-.97-11.743h-19.904z" fill="#596064"/><path d="M987.446 275.053v-1h-.304l-.252.169.556.831zm.124 3.388l-.5.866.5-.866zm17.76 10.253l.5-.866-.5.866zm2.99-1.898l1-.083-1 .083zm-.97-11.743l.99-.083-.07-.917h-.92v1zm-20.46-.831c-1.794 1.202-1.783 3.951.18 5.085l1-1.732c-.648-.375-.661-1.294-.067-1.691l-1.113-1.662zm.18 5.085l17.76 10.253 1-1.732-17.76-10.253-1 1.732zm17.76 10.253c2.1 1.211 4.69-.434 4.49-2.847l-1.99.166c.06.804-.8 1.352-1.5.949l-1 1.732zm4.49-2.847l-.98-11.743-1.99.166.98 11.743 1.99-.166zm-1.97-12.66h-19.904v2h19.904v-2z" fill="#031634" mask="url(#path-315-inside-7)"/><circle r="1.089" transform="rotate(29.998 -20.577 2010.43) skewX(-.003)" fill="#fff" stroke="#000"/><mask id="path-318-inside-8" fill="#fff"><path fill-rule="evenodd" clip-rule="evenodd" d="M498.061 121.873a5.773 5.773 0 11-11.431-1.155h-10.623a5.773 5.773 0 11-11.431 1.156 5.773 5.773 0 015.773-5.774v-.001h21.939a5.774 5.774 0 015.773 5.774z"/></mask><path fill-rule="evenodd" clip-rule="evenodd" d="M498.061 121.873a5.773 5.773 0 11-11.431-1.155h-10.623a5.773 5.773 0 11-11.431 1.156 5.773 5.773 0 015.773-5.774v-.001h21.939a5.774 5.774 0 015.773 5.774z" fill="#828A8F"/><path d="M486.63 120.718l.98.199.243-1.199h-1.223v1zm-10.623 0v-1h-1.224l.244 1.199.98-.199zm-5.658-4.618v1h1v-1h-1zm0-.001v-1h-1v1h1zm21.939 12.547a6.774 6.774 0 006.773-6.773h-2a4.773 4.773 0 01-4.773 4.773v2zm-6.774-6.773a6.774 6.774 0 006.774 6.773v-2a4.773 4.773 0 01-4.774-4.773h-2zm.136-1.354a6.796 6.796 0 00-.136 1.354h2c0-.329.033-.648.096-.956l-1.96-.398zm.98-.801h-10.623v2h10.623v-2zm-9.508 2.156c0-.463-.046-.917-.135-1.355l-1.96.398c.062.308.095.628.095.957h2zm-6.773 6.773a6.773 6.773 0 006.773-6.773h-2a4.773 4.773 0 01-4.773 4.773v2zm-6.773-6.773a6.773 6.773 0 006.773 6.773v-2a4.773 4.773 0 01-4.773-4.773h-2zm6.773-6.774a6.773 6.773 0 00-6.773 6.774h2a4.773 4.773 0 014.773-4.774v-2zm1 1v-.001h-2v.001h2zm-1 .999h21.939v-2h-21.939v2zm28.712 4.774a6.774 6.774 0 00-6.773-6.774v2a4.773 4.773 0 014.773 4.774h2z" fill="#031634" mask="url(#path-318-inside-8)"/><mask id="path-320-inside-9" fill="#fff"><path fill-rule="evenodd" clip-rule="evenodd" d="M580.042 121.873a5.774 5.774 0 11-11.431-1.155h-10.623a5.773 5.773 0 11-5.658-4.618v-.001h21.938a5.774 5.774 0 015.774 5.774z"/></mask><path fill-rule="evenodd" clip-rule="evenodd" d="M580.042 121.873a5.774 5.774 0 11-11.431-1.155h-10.623a5.773 5.773 0 11-5.658-4.618v-.001h21.938a5.774 5.774 0 015.774 5.774z" fill="#828A8F"/><path d="M568.611 120.718l.98.199.243-1.199h-1.223v1zm-10.623 0v-1h-1.224l.244 1.199.98-.199zm-5.658-4.618v1h1v-1h-1zm0-.001v-1h-1v1h1zm21.938 12.547a6.774 6.774 0 006.774-6.773h-2a4.773 4.773 0 01-4.774 4.773v2zm-6.773-6.773a6.774 6.774 0 006.773 6.773v-2a4.773 4.773 0 01-4.773-4.773h-2zm.136-1.354a6.796 6.796 0 00-.136 1.354h2c0-.329.033-.648.096-.956l-1.96-.398zm.98-.801h-10.623v2h10.623v-2zm-9.508 2.156c0-.463-.046-.917-.135-1.355l-1.96.398c.062.308.095.628.095.957h2zm-6.773 6.773a6.773 6.773 0 006.773-6.773h-2a4.773 4.773 0 01-4.773 4.773v2zm-6.773-6.773a6.773 6.773 0 006.773 6.773v-2a4.773 4.773 0 01-4.773-4.773h-2zm6.773-6.774a6.773 6.773 0 00-6.773 6.774h2a4.773 4.773 0 014.773-4.774v-2zm1 1v-.001h-2v.001h2zm-1 .999h21.938v-2H552.33v2zm28.712 4.774a6.774 6.774 0 00-6.774-6.774v2a4.773 4.773 0 014.774 4.774h2z" fill="#031634" mask="url(#path-320-inside-9)"/><mask id="path-322-inside-10" fill="#fff"><path fill-rule="evenodd" clip-rule="evenodd" d="M459.957 210.782a5.773 5.773 0 11-11.431-1.155h-10.623a5.774 5.774 0 11-5.658-4.618v-.001h21.939a5.774 5.774 0 015.773 5.774z"/></mask><path fill-rule="evenodd" clip-rule="evenodd" d="M459.957 210.782a5.773 5.773 0 11-11.431-1.155h-10.623a5.774 5.774 0 11-5.658-4.618v-.001h21.939a5.774 5.774 0 015.773 5.774z" fill="#828A8F"/><path d="M448.526 209.627l.98.199.243-1.199h-1.223v1zm-10.623 0v-1h-1.224l.244 1.199.98-.199zm-5.658-4.618v1h1v-1h-1zm0-.001v-1h-1v1h1zm21.939 12.547a6.774 6.774 0 006.773-6.773h-2a4.773 4.773 0 01-4.773 4.773v2zm-6.774-6.773a6.774 6.774 0 006.774 6.773v-2a4.773 4.773 0 01-4.774-4.773h-2zm.136-1.354a6.796 6.796 0 00-.136 1.354h2c0-.329.033-.648.096-.956l-1.96-.398zm.98-.801h-10.623v2h10.623v-2zm-9.508 2.155c0-.463-.046-.916-.135-1.354l-1.96.398c.062.308.095.628.095.956h2zm-6.773 6.774a6.773 6.773 0 006.773-6.774h-2a4.774 4.774 0 01-4.773 4.774v2zm-6.773-6.774a6.773 6.773 0 006.773 6.774v-2a4.774 4.774 0 01-4.773-4.774h-2zm6.773-6.773a6.773 6.773 0 00-6.773 6.773h2a4.773 4.773 0 014.773-4.773v-2zm1 1v-.001h-2v.001h2zm-1 .999h21.939v-2h-21.939v2zm28.712 4.774a6.774 6.774 0 00-6.773-6.774v2a4.773 4.773 0 014.773 4.774h2z" fill="#031634" mask="url(#path-322-inside-10)"/><mask id="path-324-inside-11" fill="#fff"><path fill-rule="evenodd" clip-rule="evenodd" d="M541.938 210.782a5.773 5.773 0 11-11.431-1.155h-10.623a5.774 5.774 0 11-5.658-4.618v-.001h21.939a5.774 5.774 0 015.773 5.774z"/></mask><path fill-rule="evenodd" clip-rule="evenodd" d="M541.938 210.782a5.773 5.773 0 11-11.431-1.155h-10.623a5.774 5.774 0 11-5.658-4.618v-.001h21.939a5.774 5.774 0 015.773 5.774z" fill="#828A8F"/><path d="M530.507 209.627l.98.199.243-1.199h-1.223v1zm-10.623 0v-1h-1.224l.244 1.199.98-.199zm-5.658-4.618v1h1v-1h-1zm0-.001v-1h-1v1h1zm21.939 12.547a6.774 6.774 0 006.773-6.773h-2a4.773 4.773 0 01-4.773 4.773v2zm-6.774-6.773a6.774 6.774 0 006.774 6.773v-2a4.773 4.773 0 01-4.774-4.773h-2zm.136-1.354a6.796 6.796 0 00-.136 1.354h2c0-.329.033-.648.096-.956l-1.96-.398zm.98-.801h-10.623v2h10.623v-2zm-9.508 2.155c0-.463-.046-.916-.135-1.354l-1.96.398c.062.308.095.628.095.956h2zm-6.773 6.774a6.773 6.773 0 006.773-6.774h-2a4.774 4.774 0 01-4.773 4.774v2zm-6.773-6.774a6.773 6.773 0 006.773 6.774v-2a4.774 4.774 0 01-4.773-4.774h-2zm6.773-6.773a6.773 6.773 0 00-6.773 6.773h2a4.773 4.773 0 014.773-4.773v-2zm0 0v2-2zm1 1v-.001h-2v.001h2zm-1 .999h21.939v-2h-21.939v2zm28.712 4.774a6.774 6.774 0 00-6.773-6.774v2a4.773 4.773 0 014.773 4.774h2z" fill="#031634" mask="url(#path-324-inside-11)"/><mask id="path-326-inside-12" fill="#fff"><path fill-rule="evenodd" clip-rule="evenodd" d="M357.97 105.061h-49.25v49.25h11.916v-8.738h25.419v8.738h11.915v-49.25z"/></mask><path fill-rule="evenodd" clip-rule="evenodd" d="M357.97 105.061h-49.25v49.25h11.916v-8.738h25.419v8.738h11.915v-49.25z" fill="#A2B3BF"/><path d="M308.72 105.061v-1h-1v1h1zm49.25 0h1v-1h-1v1zm-49.25 49.25h-1v1h1v-1zm11.916 0v1h1v-1h-1zm0-8.738v-1h-1v1h1zm25.419 0h1v-1h-1v1zm0 8.738h-1v1h1v-1zm11.915 0v1h1v-1h-1zm-49.25-48.25h49.25v-2h-49.25v2zm1 48.25v-49.25h-2v49.25h2zm10.916-1H308.72v2h11.916v-2zm1 1v-8.738h-2v8.738h2zm-1-7.738h25.419v-2h-25.419v2zm24.419-1v8.738h2v-8.738h-2zm12.915 7.738h-11.915v2h11.915v-2zm-1-48.25v49.25h2v-49.25h-2z" fill="#031634" mask="url(#path-326-inside-12)"/><path fill="#E1EAF1" stroke="#031634" d="M319.588 114.29H346.3v25.557h-26.712z"/><path d="M308.696 105.708l11.547 9.237m0 24.248l-11.547 6.928m48.496-40.413l-11.547 9.237m0 24.248l11.547 6.928" stroke="#031634"/></svg>